<svg xmlns="http://www.w3.org/2000/svg" xmlns:xlink="http://www.w3.org/1999/xlink" width="1200" zoomAndPan="magnify" viewBox="0 0 900 899.99999" height="1200" preserveAspectRatio="xMidYMid meet" version="1.0"><defs><g/><clipPath id="6a7c4001bc"><path d="M 555.765625 348.5 L 656.894531 348.5 L 656.894531 449.628906 L 555.765625 449.628906 Z M 555.765625 348.5 " clip-rule="nonzero"/></clipPath><clipPath id="adfa73bec9"><path d="M 578.265625 348.5 L 634.394531 348.5 C 646.824219 348.5 656.894531 358.574219 656.894531 371 L 656.894531 427.128906 C 656.894531 439.554688 646.824219 449.628906 634.394531 449.628906 L 578.265625 449.628906 C 565.839844 449.628906 555.765625 439.554688 555.765625 427.128906 L 555.765625 371 C 555.765625 358.574219 565.839844 348.5 578.265625 348.5 Z M 578.265625 348.5 " clip-rule="nonzero"/></clipPath><linearGradient x1="-0.0000333057" gradientTransform="matrix(0.395036, 0, 0, 0.395036, 555.767149, 348.499766)" y1="128" x2="255.999934" gradientUnits="userSpaceOnUse" y2="128" id="adc4960d29"><stop stop-opacity="1" stop-color="rgb(0%, 28.999329%, 67.799377%)" offset="0"/><stop stop-opacity="1" stop-color="rgb(0.309753%, 29.051208%, 67.886353%)" offset="0.00390625"/><stop stop-opacity="1" stop-color="rgb(0.621033%, 29.104614%, 67.974854%)" offset="0.0078125"/><stop stop-opacity="1" stop-color="rgb(0.932312%, 29.156494%, 68.061829%)" offset="0.0117188"/><stop stop-opacity="1" stop-color="rgb(1.243591%, 29.208374%, 68.148804%)" offset="0.015625"/><stop stop-opacity="1" stop-color="rgb(1.553345%, 29.260254%, 68.235779%)" offset="0.0195312"/><stop stop-opacity="1" stop-color="rgb(1.864624%, 29.31366%, 68.32428%)" offset="0.0234375"/><stop stop-opacity="1" stop-color="rgb(2.175903%, 29.36554%, 68.411255%)" offset="0.0273438"/><stop stop-opacity="1" stop-color="rgb(2.487183%, 29.417419%, 68.499756%)" offset="0.03125"/><stop stop-opacity="1" stop-color="rgb(2.796936%, 29.469299%, 68.586731%)" offset="0.0351563"/><stop stop-opacity="1" stop-color="rgb(3.108215%, 29.522705%, 68.673706%)" offset="0.0390625"/><stop stop-opacity="1" stop-color="rgb(3.419495%, 29.574585%, 68.760681%)" offset="0.0429687"/><stop stop-opacity="1" stop-color="rgb(3.730774%, 29.627991%, 68.849182%)" offset="0.046875"/><stop stop-opacity="1" stop-color="rgb(4.040527%, 29.679871%, 68.936157%)" offset="0.0507813"/><stop stop-opacity="1" stop-color="rgb(4.351807%, 29.73175%, 69.024658%)" offset="0.0546875"/><stop stop-opacity="1" stop-color="rgb(4.663086%, 29.78363%, 69.111633%)" offset="0.0585937"/><stop stop-opacity="1" stop-color="rgb(4.974365%, 29.837036%, 69.198608%)" offset="0.0625"/><stop stop-opacity="1" stop-color="rgb(5.284119%, 29.888916%, 69.285583%)" offset="0.0664062"/><stop stop-opacity="1" stop-color="rgb(5.595398%, 29.940796%, 69.374084%)" offset="0.0703125"/><stop stop-opacity="1" stop-color="rgb(5.906677%, 29.992676%, 69.46106%)" offset="0.0742188"/><stop stop-opacity="1" stop-color="rgb(6.217957%, 30.046082%, 69.549561%)" offset="0.078125"/><stop stop-opacity="1" stop-color="rgb(6.529236%, 30.097961%, 69.636536%)" offset="0.0820312"/><stop stop-opacity="1" stop-color="rgb(6.840515%, 30.151367%, 69.723511%)" offset="0.0859375"/><stop stop-opacity="1" stop-color="rgb(7.150269%, 30.203247%, 69.810486%)" offset="0.0898438"/><stop stop-opacity="1" stop-color="rgb(7.461548%, 30.255127%, 69.898987%)" offset="0.09375"/><stop stop-opacity="1" stop-color="rgb(7.772827%, 30.307007%, 69.985962%)" offset="0.0976562"/><stop stop-opacity="1" stop-color="rgb(8.084106%, 30.360413%, 70.074463%)" offset="0.101563"/><stop stop-opacity="1" stop-color="rgb(8.39386%, 30.412292%, 70.161438%)" offset="0.105469"/><stop stop-opacity="1" stop-color="rgb(8.705139%, 30.464172%, 70.249939%)" offset="0.109375"/><stop stop-opacity="1" stop-color="rgb(9.016418%, 30.516052%, 70.336914%)" offset="0.113281"/><stop stop-opacity="1" stop-color="rgb(9.327698%, 30.569458%, 70.423889%)" offset="0.117187"/><stop stop-opacity="1" stop-color="rgb(9.637451%, 30.621338%, 70.510864%)" offset="0.121094"/><stop stop-opacity="1" stop-color="rgb(9.94873%, 30.674744%, 70.599365%)" offset="0.125"/><stop stop-opacity="1" stop-color="rgb(10.26001%, 30.726624%, 70.68634%)" offset="0.128906"/><stop stop-opacity="1" stop-color="rgb(10.571289%, 30.778503%, 70.774841%)" offset="0.132812"/><stop stop-opacity="1" stop-color="rgb(10.881042%, 30.830383%, 70.861816%)" offset="0.136719"/><stop stop-opacity="1" stop-color="rgb(11.192322%, 30.883789%, 70.948792%)" offset="0.140625"/><stop stop-opacity="1" stop-color="rgb(11.503601%, 30.935669%, 71.035767%)" offset="0.144531"/><stop stop-opacity="1" stop-color="rgb(11.81488%, 30.987549%, 71.124268%)" offset="0.148438"/><stop stop-opacity="1" stop-color="rgb(12.12616%, 31.039429%, 71.211243%)" offset="0.152344"/><stop stop-opacity="1" stop-color="rgb(12.437439%, 31.092834%, 71.299744%)" offset="0.15625"/><stop stop-opacity="1" stop-color="rgb(12.747192%, 31.144714%, 71.386719%)" offset="0.160156"/><stop stop-opacity="1" stop-color="rgb(13.058472%, 31.19812%, 71.473694%)" offset="0.164062"/><stop stop-opacity="1" stop-color="rgb(13.369751%, 31.25%, 71.560669%)" offset="0.167969"/><stop stop-opacity="1" stop-color="rgb(13.68103%, 31.30188%, 71.64917%)" offset="0.171875"/><stop stop-opacity="1" stop-color="rgb(13.990784%, 31.35376%, 71.736145%)" offset="0.175781"/><stop stop-opacity="1" stop-color="rgb(14.302063%, 31.407166%, 71.824646%)" offset="0.179688"/><stop stop-opacity="1" stop-color="rgb(14.613342%, 31.459045%, 71.911621%)" offset="0.183594"/><stop stop-opacity="1" stop-color="rgb(14.924622%, 31.512451%, 71.998596%)" offset="0.1875"/><stop stop-opacity="1" stop-color="rgb(15.234375%, 31.564331%, 72.085571%)" offset="0.191406"/><stop stop-opacity="1" stop-color="rgb(15.545654%, 31.616211%, 72.174072%)" offset="0.195312"/><stop stop-opacity="1" stop-color="rgb(15.856934%, 31.668091%, 72.261047%)" offset="0.199219"/><stop stop-opacity="1" stop-color="rgb(16.168213%, 31.721497%, 72.349548%)" offset="0.203125"/><stop stop-opacity="1" stop-color="rgb(16.477966%, 31.773376%, 72.436523%)" offset="0.207031"/><stop stop-opacity="1" stop-color="rgb(16.789246%, 31.825256%, 72.523499%)" offset="0.210938"/><stop stop-opacity="1" stop-color="rgb(17.100525%, 31.877136%, 72.610474%)" offset="0.214844"/><stop stop-opacity="1" stop-color="rgb(17.411804%, 31.930542%, 72.698975%)" offset="0.21875"/><stop stop-opacity="1" stop-color="rgb(17.721558%, 31.982422%, 72.78595%)" offset="0.222656"/><stop stop-opacity="1" stop-color="rgb(18.032837%, 32.035828%, 72.874451%)" offset="0.226562"/><stop stop-opacity="1" stop-color="rgb(18.344116%, 32.087708%, 72.961426%)" offset="0.230469"/><stop stop-opacity="1" stop-color="rgb(18.655396%, 32.139587%, 73.049927%)" offset="0.234375"/><stop stop-opacity="1" stop-color="rgb(18.966675%, 32.191467%, 73.136902%)" offset="0.238281"/><stop stop-opacity="1" stop-color="rgb(19.277954%, 32.244873%, 73.223877%)" offset="0.242188"/><stop stop-opacity="1" stop-color="rgb(19.587708%, 32.296753%, 73.310852%)" offset="0.246094"/><stop stop-opacity="1" stop-color="rgb(19.898987%, 32.348633%, 73.399353%)" offset="0.25"/><stop stop-opacity="1" stop-color="rgb(20.210266%, 32.400513%, 73.486328%)" offset="0.253906"/><stop stop-opacity="1" stop-color="rgb(20.521545%, 32.453918%, 73.574829%)" offset="0.257812"/><stop stop-opacity="1" stop-color="rgb(20.831299%, 32.505798%, 73.661804%)" offset="0.261719"/><stop stop-opacity="1" stop-color="rgb(21.142578%, 32.559204%, 73.748779%)" offset="0.265625"/><stop stop-opacity="1" stop-color="rgb(21.453857%, 32.611084%, 73.835754%)" offset="0.269531"/><stop stop-opacity="1" stop-color="rgb(21.765137%, 32.662964%, 73.924255%)" offset="0.273438"/><stop stop-opacity="1" stop-color="rgb(22.07489%, 32.714844%, 74.01123%)" offset="0.277344"/><stop stop-opacity="1" stop-color="rgb(22.386169%, 32.76825%, 74.099731%)" offset="0.28125"/><stop stop-opacity="1" stop-color="rgb(22.697449%, 32.820129%, 74.186707%)" offset="0.285156"/><stop stop-opacity="1" stop-color="rgb(23.008728%, 32.872009%, 74.273682%)" offset="0.289062"/><stop stop-opacity="1" stop-color="rgb(23.318481%, 32.923889%, 74.360657%)" offset="0.292969"/><stop stop-opacity="1" stop-color="rgb(23.629761%, 32.977295%, 74.449158%)" offset="0.296875"/><stop stop-opacity="1" stop-color="rgb(23.94104%, 33.029175%, 74.536133%)" offset="0.300781"/><stop stop-opacity="1" stop-color="rgb(24.252319%, 33.082581%, 74.624634%)" offset="0.304687"/><stop stop-opacity="1" stop-color="rgb(24.563599%, 33.13446%, 74.711609%)" offset="0.308594"/><stop stop-opacity="1" stop-color="rgb(24.874878%, 33.18634%, 74.798584%)" offset="0.3125"/><stop stop-opacity="1" stop-color="rgb(25.184631%, 33.23822%, 74.885559%)" offset="0.316406"/><stop stop-opacity="1" stop-color="rgb(25.495911%, 33.291626%, 74.97406%)" offset="0.320313"/><stop stop-opacity="1" stop-color="rgb(25.80719%, 33.343506%, 75.061035%)" offset="0.324219"/><stop stop-opacity="1" stop-color="rgb(26.118469%, 33.395386%, 75.149536%)" offset="0.328125"/><stop stop-opacity="1" stop-color="rgb(26.428223%, 33.447266%, 75.236511%)" offset="0.332031"/><stop stop-opacity="1" stop-color="rgb(26.739502%, 33.500671%, 75.323486%)" offset="0.335938"/><stop stop-opacity="1" stop-color="rgb(27.050781%, 33.552551%, 75.410461%)" offset="0.339844"/><stop stop-opacity="1" stop-color="rgb(27.362061%, 33.605957%, 75.498962%)" offset="0.34375"/><stop stop-opacity="1" stop-color="rgb(27.671814%, 33.657837%, 75.585938%)" offset="0.347656"/><stop stop-opacity="1" stop-color="rgb(27.983093%, 33.709717%, 75.674438%)" offset="0.351562"/><stop stop-opacity="1" stop-color="rgb(28.294373%, 33.761597%, 75.761414%)" offset="0.355469"/><stop stop-opacity="1" stop-color="rgb(28.605652%, 33.815002%, 75.849915%)" offset="0.359375"/><stop stop-opacity="1" stop-color="rgb(28.915405%, 33.866882%, 75.93689%)" offset="0.363281"/><stop stop-opacity="1" stop-color="rgb(29.226685%, 33.920288%, 76.023865%)" offset="0.367188"/><stop stop-opacity="1" stop-color="rgb(29.537964%, 33.972168%, 76.11084%)" offset="0.371094"/><stop stop-opacity="1" stop-color="rgb(29.849243%, 34.024048%, 76.199341%)" offset="0.375"/><stop stop-opacity="1" stop-color="rgb(30.160522%, 34.075928%, 76.286316%)" offset="0.378906"/><stop stop-opacity="1" stop-color="rgb(30.471802%, 34.129333%, 76.374817%)" offset="0.382812"/><stop stop-opacity="1" stop-color="rgb(30.781555%, 34.181213%, 76.461792%)" offset="0.386719"/><stop stop-opacity="1" stop-color="rgb(31.092834%, 34.233093%, 76.548767%)" offset="0.390625"/><stop stop-opacity="1" stop-color="rgb(31.404114%, 34.284973%, 76.635742%)" offset="0.394531"/><stop stop-opacity="1" stop-color="rgb(31.715393%, 34.338379%, 76.724243%)" offset="0.398438"/><stop stop-opacity="1" stop-color="rgb(32.025146%, 34.390259%, 76.811218%)" offset="0.402344"/><stop stop-opacity="1" stop-color="rgb(32.336426%, 34.443665%, 76.899719%)" offset="0.40625"/><stop stop-opacity="1" stop-color="rgb(32.647705%, 34.495544%, 76.986694%)" offset="0.410156"/><stop stop-opacity="1" stop-color="rgb(32.958984%, 34.547424%, 77.073669%)" offset="0.414062"/><stop stop-opacity="1" stop-color="rgb(33.268738%, 34.599304%, 77.160645%)" offset="0.417969"/><stop stop-opacity="1" stop-color="rgb(33.580017%, 34.65271%, 77.249146%)" offset="0.421875"/><stop stop-opacity="1" stop-color="rgb(33.891296%, 34.70459%, 77.336121%)" offset="0.425781"/><stop stop-opacity="1" stop-color="rgb(34.202576%, 34.75647%, 77.424622%)" offset="0.429687"/><stop stop-opacity="1" stop-color="rgb(34.512329%, 34.80835%, 77.511597%)" offset="0.433594"/><stop stop-opacity="1" stop-color="rgb(34.823608%, 34.861755%, 77.598572%)" offset="0.4375"/><stop stop-opacity="1" stop-color="rgb(35.134888%, 34.913635%, 77.685547%)" offset="0.441406"/><stop stop-opacity="1" stop-color="rgb(35.446167%, 34.967041%, 77.774048%)" offset="0.445313"/><stop stop-opacity="1" stop-color="rgb(35.757446%, 35.018921%, 77.861023%)" offset="0.449219"/><stop stop-opacity="1" stop-color="rgb(36.068726%, 35.070801%, 77.949524%)" offset="0.453125"/><stop stop-opacity="1" stop-color="rgb(36.378479%, 35.122681%, 78.036499%)" offset="0.457031"/><stop stop-opacity="1" stop-color="rgb(36.689758%, 35.176086%, 78.123474%)" offset="0.460938"/><stop stop-opacity="1" stop-color="rgb(37.001038%, 35.227966%, 78.210449%)" offset="0.464844"/><stop stop-opacity="1" stop-color="rgb(37.312317%, 35.279846%, 78.29895%)" offset="0.46875"/><stop stop-opacity="1" stop-color="rgb(37.62207%, 35.331726%, 78.385925%)" offset="0.472656"/><stop stop-opacity="1" stop-color="rgb(37.93335%, 35.385132%, 78.474426%)" offset="0.476562"/><stop stop-opacity="1" stop-color="rgb(38.244629%, 35.437012%, 78.561401%)" offset="0.480469"/><stop stop-opacity="1" stop-color="rgb(38.555908%, 35.490417%, 78.649902%)" offset="0.484375"/><stop stop-opacity="1" stop-color="rgb(38.865662%, 35.542297%, 78.736877%)" offset="0.488281"/><stop stop-opacity="1" stop-color="rgb(39.176941%, 35.594177%, 78.823853%)" offset="0.492188"/><stop stop-opacity="1" stop-color="rgb(39.48822%, 35.646057%, 78.910828%)" offset="0.496094"/><stop stop-opacity="1" stop-color="rgb(39.7995%, 35.699463%, 78.999329%)" offset="0.5"/><stop stop-opacity="1" stop-color="rgb(40.109253%, 35.751343%, 79.086304%)" offset="0.503906"/><stop stop-opacity="1" stop-color="rgb(40.420532%, 35.803223%, 79.174805%)" offset="0.507812"/><stop stop-opacity="1" stop-color="rgb(40.731812%, 35.855103%, 79.26178%)" offset="0.511719"/><stop stop-opacity="1" stop-color="rgb(41.043091%, 35.908508%, 79.348755%)" offset="0.515625"/><stop stop-opacity="1" stop-color="rgb(41.352844%, 35.960388%, 79.43573%)" offset="0.519531"/><stop stop-opacity="1" stop-color="rgb(41.664124%, 36.013794%, 79.524231%)" offset="0.523437"/><stop stop-opacity="1" stop-color="rgb(41.975403%, 36.065674%, 79.611206%)" offset="0.527344"/><stop stop-opacity="1" stop-color="rgb(42.286682%, 36.117554%, 79.699707%)" offset="0.53125"/><stop stop-opacity="1" stop-color="rgb(42.597961%, 36.169434%, 79.786682%)" offset="0.535156"/><stop stop-opacity="1" stop-color="rgb(42.909241%, 36.222839%, 79.873657%)" offset="0.539063"/><stop stop-opacity="1" stop-color="rgb(43.218994%, 36.274719%, 79.960632%)" offset="0.542969"/><stop stop-opacity="1" stop-color="rgb(43.530273%, 36.326599%, 80.049133%)" offset="0.546875"/><stop stop-opacity="1" stop-color="rgb(43.841553%, 36.378479%, 80.136108%)" offset="0.550781"/><stop stop-opacity="1" stop-color="rgb(44.152832%, 36.431885%, 80.224609%)" offset="0.554688"/><stop stop-opacity="1" stop-color="rgb(44.462585%, 36.483765%, 80.311584%)" offset="0.558594"/><stop stop-opacity="1" stop-color="rgb(44.773865%, 36.53717%, 80.39856%)" offset="0.5625"/><stop stop-opacity="1" stop-color="rgb(45.085144%, 36.58905%, 80.485535%)" offset="0.566406"/><stop stop-opacity="1" stop-color="rgb(45.396423%, 36.64093%, 80.574036%)" offset="0.570312"/><stop stop-opacity="1" stop-color="rgb(45.706177%, 36.69281%, 80.661011%)" offset="0.574219"/><stop stop-opacity="1" stop-color="rgb(46.017456%, 36.746216%, 80.749512%)" offset="0.578125"/><stop stop-opacity="1" stop-color="rgb(46.328735%, 36.798096%, 80.836487%)" offset="0.582031"/><stop stop-opacity="1" stop-color="rgb(46.640015%, 36.851501%, 80.924988%)" offset="0.585938"/><stop stop-opacity="1" stop-color="rgb(46.949768%, 36.903381%, 81.011963%)" offset="0.589844"/><stop stop-opacity="1" stop-color="rgb(47.261047%, 36.955261%, 81.098938%)" offset="0.59375"/><stop stop-opacity="1" stop-color="rgb(47.572327%, 37.007141%, 81.185913%)" offset="0.597656"/><stop stop-opacity="1" stop-color="rgb(47.883606%, 37.060547%, 81.274414%)" offset="0.601562"/><stop stop-opacity="1" stop-color="rgb(48.194885%, 37.112427%, 81.361389%)" offset="0.605469"/><stop stop-opacity="1" stop-color="rgb(48.506165%, 37.164307%, 81.44989%)" offset="0.609375"/><stop stop-opacity="1" stop-color="rgb(48.815918%, 37.216187%, 81.536865%)" offset="0.613281"/><stop stop-opacity="1" stop-color="rgb(49.127197%, 37.269592%, 81.62384%)" offset="0.617187"/><stop stop-opacity="1" stop-color="rgb(49.438477%, 37.321472%, 81.710815%)" offset="0.621094"/><stop stop-opacity="1" stop-color="rgb(49.749756%, 37.374878%, 81.799316%)" offset="0.625"/><stop stop-opacity="1" stop-color="rgb(50.059509%, 37.426758%, 81.886292%)" offset="0.628906"/><stop stop-opacity="1" stop-color="rgb(50.370789%, 37.478638%, 81.974792%)" offset="0.632813"/><stop stop-opacity="1" stop-color="rgb(50.682068%, 37.530518%, 82.061768%)" offset="0.636719"/><stop stop-opacity="1" stop-color="rgb(50.993347%, 37.583923%, 82.148743%)" offset="0.640625"/><stop stop-opacity="1" stop-color="rgb(51.303101%, 37.635803%, 82.235718%)" offset="0.644531"/><stop stop-opacity="1" stop-color="rgb(51.61438%, 37.687683%, 82.324219%)" offset="0.648438"/><stop stop-opacity="1" stop-color="rgb(51.925659%, 37.739563%, 82.411194%)" offset="0.652344"/><stop stop-opacity="1" stop-color="rgb(52.236938%, 37.792969%, 82.499695%)" offset="0.65625"/><stop stop-opacity="1" stop-color="rgb(52.546692%, 37.844849%, 82.58667%)" offset="0.660156"/><stop stop-opacity="1" stop-color="rgb(52.857971%, 37.898254%, 82.673645%)" offset="0.664062"/><stop stop-opacity="1" stop-color="rgb(53.16925%, 37.950134%, 82.76062%)" offset="0.667969"/><stop stop-opacity="1" stop-color="rgb(53.48053%, 38.002014%, 82.849121%)" offset="0.671875"/><stop stop-opacity="1" stop-color="rgb(53.791809%, 38.053894%, 82.936096%)" offset="0.675781"/><stop stop-opacity="1" stop-color="rgb(54.103088%, 38.1073%, 83.024597%)" offset="0.679688"/><stop stop-opacity="1" stop-color="rgb(54.412842%, 38.15918%, 83.111572%)" offset="0.683594"/><stop stop-opacity="1" stop-color="rgb(54.724121%, 38.21106%, 83.198547%)" offset="0.6875"/><stop stop-opacity="1" stop-color="rgb(55.0354%, 38.262939%, 83.285522%)" offset="0.691406"/><stop stop-opacity="1" stop-color="rgb(55.34668%, 38.316345%, 83.374023%)" offset="0.695312"/><stop stop-opacity="1" stop-color="rgb(55.656433%, 38.368225%, 83.460999%)" offset="0.699219"/><stop stop-opacity="1" stop-color="rgb(55.967712%, 38.421631%, 83.5495%)" offset="0.703125"/><stop stop-opacity="1" stop-color="rgb(56.278992%, 38.473511%, 83.636475%)" offset="0.707031"/><stop stop-opacity="1" stop-color="rgb(56.590271%, 38.525391%, 83.724976%)" offset="0.710937"/><stop stop-opacity="1" stop-color="rgb(56.900024%, 38.577271%, 83.811951%)" offset="0.714844"/><stop stop-opacity="1" stop-color="rgb(57.211304%, 38.630676%, 83.898926%)" offset="0.71875"/><stop stop-opacity="1" stop-color="rgb(57.522583%, 38.682556%, 83.985901%)" offset="0.722656"/><stop stop-opacity="1" stop-color="rgb(57.833862%, 38.734436%, 84.074402%)" offset="0.726563"/><stop stop-opacity="1" stop-color="rgb(58.143616%, 38.786316%, 84.161377%)" offset="0.730469"/><stop stop-opacity="1" stop-color="rgb(58.454895%, 38.839722%, 84.249878%)" offset="0.734375"/><stop stop-opacity="1" stop-color="rgb(58.766174%, 38.891602%, 84.336853%)" offset="0.738281"/><stop stop-opacity="1" stop-color="rgb(59.077454%, 38.945007%, 84.423828%)" offset="0.742188"/><stop stop-opacity="1" stop-color="rgb(59.387207%, 38.996887%, 84.510803%)" offset="0.746094"/><stop stop-opacity="1" stop-color="rgb(59.698486%, 39.048767%, 84.599304%)" offset="0.75"/><stop stop-opacity="1" stop-color="rgb(60.009766%, 39.100647%, 84.686279%)" offset="0.753906"/><stop stop-opacity="1" stop-color="rgb(60.321045%, 39.154053%, 84.77478%)" offset="0.757812"/><stop stop-opacity="1" stop-color="rgb(60.632324%, 39.205933%, 84.861755%)" offset="0.761719"/><stop stop-opacity="1" stop-color="rgb(60.943604%, 39.259338%, 84.94873%)" offset="0.765625"/><stop stop-opacity="1" stop-color="rgb(61.253357%, 39.311218%, 85.035706%)" offset="0.769531"/><stop stop-opacity="1" stop-color="rgb(61.564636%, 39.363098%, 85.124207%)" offset="0.773437"/><stop stop-opacity="1" stop-color="rgb(61.875916%, 39.414978%, 85.211182%)" offset="0.777344"/><stop stop-opacity="1" stop-color="rgb(62.187195%, 39.468384%, 85.299683%)" offset="0.78125"/><stop stop-opacity="1" stop-color="rgb(62.496948%, 39.520264%, 85.386658%)" offset="0.785156"/><stop stop-opacity="1" stop-color="rgb(62.808228%, 39.572144%, 85.473633%)" offset="0.789063"/><stop stop-opacity="1" stop-color="rgb(63.119507%, 39.624023%, 85.560608%)" offset="0.792969"/><stop stop-opacity="1" stop-color="rgb(63.430786%, 39.677429%, 85.649109%)" offset="0.796875"/><stop stop-opacity="1" stop-color="rgb(63.74054%, 39.729309%, 85.736084%)" offset="0.800781"/><stop stop-opacity="1" stop-color="rgb(64.051819%, 39.782715%, 85.824585%)" offset="0.804688"/><stop stop-opacity="1" stop-color="rgb(64.363098%, 39.834595%, 85.91156%)" offset="0.808594"/><stop stop-opacity="1" stop-color="rgb(64.674377%, 39.886475%, 85.998535%)" offset="0.8125"/><stop stop-opacity="1" stop-color="rgb(64.984131%, 39.938354%, 86.08551%)" offset="0.816406"/><stop stop-opacity="1" stop-color="rgb(65.29541%, 39.99176%, 86.174011%)" offset="0.820312"/><stop stop-opacity="1" stop-color="rgb(65.606689%, 40.04364%, 86.260986%)" offset="0.824219"/><stop stop-opacity="1" stop-color="rgb(65.917969%, 40.09552%, 86.349487%)" offset="0.828125"/><stop stop-opacity="1" stop-color="rgb(66.229248%, 40.1474%, 86.436462%)" offset="0.832031"/><stop stop-opacity="1" stop-color="rgb(66.540527%, 40.200806%, 86.524963%)" offset="0.835938"/><stop stop-opacity="1" stop-color="rgb(66.850281%, 40.252686%, 86.611938%)" offset="0.839844"/><stop stop-opacity="1" stop-color="rgb(67.16156%, 40.306091%, 86.698914%)" offset="0.84375"/><stop stop-opacity="1" stop-color="rgb(67.472839%, 40.357971%, 86.785889%)" offset="0.847656"/><stop stop-opacity="1" stop-color="rgb(67.784119%, 40.409851%, 86.87439%)" offset="0.851562"/><stop stop-opacity="1" stop-color="rgb(68.093872%, 40.461731%, 86.961365%)" offset="0.855469"/><stop stop-opacity="1" stop-color="rgb(68.405151%, 40.515137%, 87.049866%)" offset="0.859375"/><stop stop-opacity="1" stop-color="rgb(68.716431%, 40.567017%, 87.136841%)" offset="0.863281"/><stop stop-opacity="1" stop-color="rgb(69.02771%, 40.618896%, 87.223816%)" offset="0.867187"/><stop stop-opacity="1" stop-color="rgb(69.337463%, 40.670776%, 87.310791%)" offset="0.871094"/><stop stop-opacity="1" stop-color="rgb(69.648743%, 40.724182%, 87.399292%)" offset="0.875"/><stop stop-opacity="1" stop-color="rgb(69.960022%, 40.776062%, 87.486267%)" offset="0.878906"/><stop stop-opacity="1" stop-color="rgb(70.271301%, 40.829468%, 87.574768%)" offset="0.882813"/><stop stop-opacity="1" stop-color="rgb(70.581055%, 40.881348%, 87.661743%)" offset="0.886719"/><stop stop-opacity="1" stop-color="rgb(70.892334%, 40.933228%, 87.748718%)" offset="0.890625"/><stop stop-opacity="1" stop-color="rgb(71.203613%, 40.985107%, 87.835693%)" offset="0.894531"/><stop stop-opacity="1" stop-color="rgb(71.514893%, 41.038513%, 87.924194%)" offset="0.898438"/><stop stop-opacity="1" stop-color="rgb(71.826172%, 41.090393%, 88.011169%)" offset="0.902344"/><stop stop-opacity="1" stop-color="rgb(72.137451%, 41.142273%, 88.09967%)" offset="0.90625"/><stop stop-opacity="1" stop-color="rgb(72.447205%, 41.194153%, 88.186646%)" offset="0.910156"/><stop stop-opacity="1" stop-color="rgb(72.758484%, 41.247559%, 88.273621%)" offset="0.914062"/><stop stop-opacity="1" stop-color="rgb(73.069763%, 41.299438%, 88.360596%)" offset="0.917969"/><stop stop-opacity="1" stop-color="rgb(73.381042%, 41.352844%, 88.449097%)" offset="0.921875"/><stop stop-opacity="1" stop-color="rgb(73.690796%, 41.404724%, 88.536072%)" offset="0.925781"/><stop stop-opacity="1" stop-color="rgb(74.002075%, 41.456604%, 88.624573%)" offset="0.929688"/><stop stop-opacity="1" stop-color="rgb(74.313354%, 41.508484%, 88.711548%)" offset="0.933594"/><stop stop-opacity="1" stop-color="rgb(74.624634%, 41.56189%, 88.798523%)" offset="0.9375"/><stop stop-opacity="1" stop-color="rgb(74.934387%, 41.61377%, 88.885498%)" offset="0.941406"/><stop stop-opacity="1" stop-color="rgb(75.245667%, 41.667175%, 88.973999%)" offset="0.945312"/><stop stop-opacity="1" stop-color="rgb(75.556946%, 41.719055%, 89.060974%)" offset="0.949219"/><stop stop-opacity="1" stop-color="rgb(75.868225%, 41.770935%, 89.149475%)" offset="0.953125"/><stop stop-opacity="1" stop-color="rgb(76.177979%, 41.822815%, 89.23645%)" offset="0.957031"/><stop stop-opacity="1" stop-color="rgb(76.489258%, 41.876221%, 89.324951%)" offset="0.960937"/><stop stop-opacity="1" stop-color="rgb(76.800537%, 41.928101%, 89.411926%)" offset="0.964844"/><stop stop-opacity="1" stop-color="rgb(77.111816%, 41.97998%, 89.498901%)" offset="0.96875"/><stop stop-opacity="1" stop-color="rgb(77.42157%, 42.03186%, 89.585876%)" offset="0.972656"/><stop stop-opacity="1" stop-color="rgb(77.732849%, 42.085266%, 89.674377%)" offset="0.976563"/><stop stop-opacity="1" stop-color="rgb(78.044128%, 42.137146%, 89.761353%)" offset="0.980469"/><stop stop-opacity="1" stop-color="rgb(78.355408%, 42.190552%, 89.849854%)" offset="0.984375"/><stop stop-opacity="1" stop-color="rgb(78.666687%, 42.242432%, 89.936829%)" offset="0.988281"/><stop stop-opacity="1" stop-color="rgb(78.977966%, 42.294312%, 90.023804%)" offset="0.992188"/><stop stop-opacity="1" stop-color="rgb(79.28772%, 42.346191%, 90.110779%)" offset="0.996094"/><stop stop-opacity="1" stop-color="rgb(79.598999%, 42.399597%, 90.19928%)" offset="1"/></linearGradient><clipPath id="1a0f3a2579"><path d="M 589.257812 369.839844 L 632.757812 369.839844 L 632.757812 428.339844 L 589.257812 428.339844 Z M 589.257812 369.839844 " clip-rule="nonzero"/></clipPath></defs><g fill="#ffffff" fill-opacity="1"><g transform="translate(417.626981, 445.266951)"><g><path d="M 123.421875 -87.765625 L 52.796875 -27.078125 L 123.421875 -27.078125 L 123.421875 0 L 8.578125 0 L 8.578125 -27.078125 L 79.1875 -87.765625 L 11.140625 -87.765625 L 11.140625 -114.84375 L 123.421875 -114.84375 Z M 123.421875 -87.765625 "/></g></g></g><g clip-path="url(#6a7c4001bc)"><g clip-path="url(#adfa73bec9)"><path fill="url(#adc4960d29)" d="M 555.765625 348.5 L 555.765625 449.628906 L 656.894531 449.628906 L 656.894531 348.5 Z M 555.765625 348.5 " fill-rule="nonzero"/></g></g><g clip-path="url(#1a0f3a2579)"><path fill="#000000" d="M 593.148438 428.296875 C 594.414062 428.296875 595.859375 427.75 597.351562 426.703125 L 629.546875 404.492188 C 631.628906 403.078125 632.757812 401.117188 632.757812 399.066406 C 632.757812 397.011719 631.628906 395.050781 629.546875 393.636719 L 597.398438 371.429688 C 595.90625 370.378906 594.414062 369.878906 593.148438 369.878906 C 590.75 369.878906 589.257812 371.839844 589.257812 375.078125 L 589.257812 423.097656 C 589.257812 426.335938 590.75 428.296875 593.148438 428.296875 Z M 593.148438 428.296875 " fill-opacity="1" fill-rule="nonzero"/></g><g fill="#ffffff" fill-opacity="1"><g transform="translate(170.758173, 445.317008)"><g><path d="M 97.984375 -69.6875 L 28.3125 -69.6875 L 28.3125 -56.34375 L 97.984375 -56.34375 L 97.984375 -34.84375 L 28.3125 -34.84375 L 28.3125 -21.5 L 97.984375 -21.5 L 97.984375 0 L 6.796875 0 L 6.796875 -91.1875 L 97.984375 -91.1875 Z M 97.984375 -69.6875 "/></g></g></g><g fill="#ffffff" fill-opacity="1"><g transform="translate(275.545084, 445.317008)"><g><path d="M 6.796875 0 L 6.796875 -91.1875 L 28.3125 -91.1875 L 28.3125 -21.5 L 59.0625 -21.640625 L 59.0625 -91.1875 L 80.5625 -91.1875 L 80.5625 -21.640625 L 111.328125 -21.5 L 111.328125 -91.1875 L 132.828125 -91.1875 L 132.828125 0 Z M 6.796875 0 "/></g></g></g><g fill="#ffffff" fill-opacity="1"><g transform="translate(415.187316, 445.317008)"><g/></g></g><g fill="#ffffff" fill-opacity="1"><g transform="translate(105.412924, 579.080606)"><g><path d="M 83.34375 0 L 72.421875 0 C 70.984375 -3.164062 69.710938 -6.003906 68.609375 -8.515625 C 67.503906 -11.023438 66.414062 -13.503906 65.34375 -15.953125 C 61.039062 -16.015625 56.257812 -16.054688 51 -16.078125 C 45.738281 -16.109375 40.492188 -16.109375 35.265625 -16.078125 C 30.035156 -16.054688 25.210938 -16.015625 20.796875 -15.953125 L 13.359375 0 L 2.78125 0 C 8.394531 -10.9375 13.890625 -21.929688 19.265625 -32.984375 C 24.640625 -44.035156 29.929688 -55.03125 35.140625 -65.96875 C 36.566406 -65.84375 38.222656 -65.734375 40.109375 -65.640625 C 41.992188 -65.554688 43.875 -65.539062 45.75 -65.59375 C 47.632812 -65.65625 49.296875 -65.78125 50.734375 -65.96875 C 55.984375 -55.03125 61.328125 -44.035156 66.765625 -32.984375 C 72.203125 -21.929688 77.726562 -10.9375 83.34375 0 Z M 23.578125 -21.953125 C 27.515625 -21.898438 31.769531 -21.859375 36.34375 -21.828125 C 40.914062 -21.796875 45.472656 -21.796875 50.015625 -21.828125 C 54.554688 -21.859375 58.765625 -21.898438 62.640625 -21.953125 C 61.390625 -24.828125 59.894531 -28.023438 58.15625 -31.546875 C 56.425781 -35.066406 54.320312 -39.234375 51.84375 -44.046875 C 49.363281 -48.859375 46.300781 -54.609375 42.65625 -61.296875 C 39.726562 -55.859375 36.648438 -49.71875 33.421875 -42.875 C 30.203125 -36.039062 26.921875 -29.066406 23.578125 -21.953125 Z M 23.578125 -21.953125 "/></g></g></g><g fill="#ffffff" fill-opacity="1"><g transform="translate(263.22772, 579.080606)"><g><path d="M 85.59375 -33.515625 C 85.59375 -26.171875 84.035156 -19.898438 80.921875 -14.703125 C 77.816406 -9.503906 73.367188 -5.515625 67.578125 -2.734375 C 61.785156 0.046875 54.851562 1.4375 46.78125 1.4375 C 38.59375 1.4375 31.601562 0.046875 25.8125 -2.734375 C 20.019531 -5.515625 15.597656 -9.503906 12.546875 -14.703125 C 9.503906 -19.898438 7.984375 -26.171875 7.984375 -33.515625 C 7.984375 -39.734375 7.953125 -45.5 7.890625 -50.8125 C 7.828125 -56.132812 7.738281 -61.1875 7.625 -65.96875 C 11.03125 -65.488281 14.34375 -65.488281 17.5625 -65.96875 C 17.445312 -61.1875 17.359375 -56.148438 17.296875 -50.859375 C 17.234375 -45.578125 17.203125 -39.738281 17.203125 -33.34375 C 17.203125 -24.5 19.769531 -17.582031 24.90625 -12.59375 C 30.050781 -7.601562 37.34375 -5.109375 46.78125 -5.109375 C 56.21875 -5.109375 63.503906 -7.601562 68.640625 -12.59375 C 73.785156 -17.582031 76.359375 -24.5 76.359375 -33.34375 C 76.359375 -39.738281 76.328125 -45.578125 76.265625 -50.859375 C 76.210938 -56.148438 76.125 -61.1875 76 -65.96875 C 79.34375 -65.488281 82.660156 -65.488281 85.953125 -65.96875 C 85.828125 -61.1875 85.734375 -56.046875 85.671875 -50.546875 C 85.617188 -45.046875 85.59375 -39.367188 85.59375 -33.515625 Z M 85.59375 -33.515625 "/></g></g></g><g fill="#ffffff" fill-opacity="1"><g transform="translate(428.659659, 579.080606)"><g><path d="M 8.78125 0.09375 C 8.90625 -4.507812 8.992188 -9.664062 9.046875 -15.375 C 9.109375 -21.082031 9.140625 -26.9375 9.140625 -32.9375 C 9.140625 -38.9375 9.109375 -44.789062 9.046875 -50.5 C 8.992188 -56.207031 8.90625 -61.363281 8.78125 -65.96875 C 13.738281 -65.96875 18.304688 -65.976562 22.484375 -66 C 26.671875 -66.03125 30.707031 -66.078125 34.59375 -66.140625 C 38.476562 -66.203125 42.453125 -66.234375 46.515625 -66.234375 C 55.660156 -66.234375 63.503906 -64.929688 70.046875 -62.328125 C 76.585938 -59.734375 81.585938 -55.984375 85.046875 -51.078125 C 88.515625 -46.179688 90.25 -40.269531 90.25 -33.34375 C 90.25 -26.351562 88.425781 -20.363281 84.78125 -15.375 C 81.132812 -10.382812 75.90625 -6.554688 69.09375 -3.890625 C 62.289062 -1.234375 54.109375 0.09375 44.546875 0.09375 Z M 18.375 -59.59375 C 18.3125 -50.757812 18.296875 -41.945312 18.328125 -33.15625 C 18.359375 -24.375 18.40625 -15.53125 18.46875 -6.625 C 22.34375 -6.570312 26.488281 -6.5 30.90625 -6.40625 C 35.332031 -6.320312 39.878906 -6.28125 44.546875 -6.28125 C 52.128906 -6.28125 58.609375 -7.351562 63.984375 -9.5 C 69.367188 -11.65625 73.507812 -14.75 76.40625 -18.78125 C 79.300781 -22.8125 80.75 -27.664062 80.75 -33.34375 C 80.75 -38.894531 79.328125 -43.640625 76.484375 -47.578125 C 73.648438 -51.523438 69.570312 -54.546875 64.25 -56.640625 C 58.9375 -58.734375 52.546875 -59.78125 45.078125 -59.78125 C 40.953125 -59.78125 36.632812 -59.75 32.125 -59.6875 C 27.613281 -59.625 23.03125 -59.59375 18.375 -59.59375 Z M 18.375 -59.59375 "/></g></g></g><g fill="#ffffff" fill-opacity="1"><g transform="translate(595.704615, 579.080606)"><g><path d="M 9.765625 0 C 9.890625 -4.78125 9.992188 -9.992188 10.078125 -15.640625 C 10.171875 -21.285156 10.21875 -27.066406 10.21875 -32.984375 C 10.21875 -38.898438 10.171875 -44.679688 10.078125 -50.328125 C 9.992188 -55.972656 9.890625 -61.1875 9.765625 -65.96875 C 13.347656 -65.488281 16.695312 -65.488281 19.8125 -65.96875 C 19.6875 -61.1875 19.59375 -55.972656 19.53125 -50.328125 C 19.476562 -44.679688 19.453125 -38.882812 19.453125 -32.9375 C 19.453125 -26.988281 19.492188 -21.207031 19.578125 -15.59375 C 19.671875 -9.976562 19.804688 -4.78125 19.984375 0 Z M 9.765625 0 "/></g></g></g><g fill="#ffffff" fill-opacity="1"><g transform="translate(697.152639, 579.080606)"><g><path d="M 48.75 1.078125 C 39.675781 1.078125 31.878906 -0.265625 25.359375 -2.953125 C 18.847656 -5.640625 13.859375 -9.523438 10.390625 -14.609375 C 6.929688 -19.691406 5.203125 -25.816406 5.203125 -32.984375 C 5.203125 -40.273438 6.929688 -46.457031 10.390625 -51.53125 C 13.859375 -56.613281 18.832031 -60.484375 25.3125 -63.140625 C 31.800781 -65.796875 39.613281 -67.125 48.75 -67.125 C 57.894531 -67.125 65.707031 -65.78125 72.1875 -63.09375 C 78.675781 -60.40625 83.632812 -56.519531 87.0625 -51.4375 C 90.5 -46.363281 92.21875 -40.210938 92.21875 -32.984375 C 92.21875 -25.816406 90.5 -19.691406 87.0625 -14.609375 C 83.632812 -9.523438 78.675781 -5.640625 72.1875 -2.953125 C 65.707031 -0.265625 57.894531 1.078125 48.75 1.078125 Z M 48.75 -5.375 C 55.800781 -5.375 61.863281 -6.429688 66.9375 -8.546875 C 72.019531 -10.671875 75.9375 -13.78125 78.6875 -17.875 C 81.4375 -21.96875 82.8125 -26.941406 82.8125 -32.796875 C 82.8125 -38.660156 81.4375 -43.664062 78.6875 -47.8125 C 75.9375 -51.96875 72.019531 -55.164062 66.9375 -57.40625 C 61.863281 -59.644531 55.800781 -60.765625 48.75 -60.765625 C 41.644531 -60.765625 35.535156 -59.644531 30.421875 -57.40625 C 25.316406 -55.164062 21.421875 -51.96875 18.734375 -47.8125 C 16.046875 -43.664062 14.703125 -38.660156 14.703125 -32.796875 C 14.703125 -24.015625 17.703125 -17.25 23.703125 -12.5 C 29.710938 -7.75 38.0625 -5.375 48.75 -5.375 Z M 48.75 -5.375 "/></g></g></g><g fill="#ffffff" fill-opacity="1"><g transform="translate(666.11608, 445.317008)"><g><path d="M 76.484375 -91.1875 L 97.984375 -91.1875 L 97.984375 0.6875 L 97.03125 0 L 76.484375 0 L 76.484375 -14.828125 L 28.3125 -49 L 28.3125 0 L 6.796875 0 L 6.796875 -91.1875 L 28.3125 -91.1875 L 28.3125 -76.21875 L 76.484375 -42.046875 Z M 76.484375 -91.1875 "/></g></g></g><g fill="#ffffff" fill-opacity="1"><g transform="translate(770.902992, 445.317008)"><g><path d="M 97.984375 -69.6875 L 28.3125 -69.6875 L 28.3125 -56.34375 L 97.984375 -56.34375 L 97.984375 -34.84375 L 28.3125 -34.84375 L 28.3125 -21.5 L 97.984375 -21.5 L 97.984375 0 L 6.796875 0 L 6.796875 -91.1875 L 97.984375 -91.1875 Z M 97.984375 -69.6875 "/></g></g></g><g fill="#ffffff" fill-opacity="1"><g transform="translate(31.859068, 443.176443)"><g><path d="M 96.34375 -114.84375 L 123.421875 -114.84375 L 123.421875 0.859375 L 122.21875 0 L 96.34375 0 L 96.34375 -18.6875 L 35.65625 -61.703125 L 35.65625 0 L 8.578125 0 L 8.578125 -114.84375 L 35.65625 -114.84375 L 35.65625 -96 L 96.34375 -52.96875 Z M 96.34375 -114.84375 "/></g></g></g></svg>