<svg xmlns="http://www.w3.org/2000/svg" xmlns:xlink="http://www.w3.org/1999/xlink" width="1200" zoomAndPan="magnify" viewBox="0 0 900 899.99999" height="1200" preserveAspectRatio="xMidYMid meet" version="1.0"><defs><g/><clipPath id="d29eed93f4"><path d="M 22.46875 143 L 870.785156 143 L 870.785156 372 L 22.46875 372 Z M 22.46875 143 " clip-rule="nonzero"/></clipPath><clipPath id="ccb86507fc"><path d="M 558.054688 441.503906 L 659.183594 441.503906 L 659.183594 542.632812 L 558.054688 542.632812 Z M 558.054688 441.503906 " clip-rule="nonzero"/></clipPath><clipPath id="4c9765d0be"><path d="M 580.554688 441.503906 L 636.683594 441.503906 C 649.109375 441.503906 659.183594 451.578125 659.183594 464.003906 L 659.183594 520.132812 C 659.183594 532.558594 649.109375 542.632812 636.683594 542.632812 L 580.554688 542.632812 C 568.125 542.632812 558.054688 532.558594 558.054688 520.132812 L 558.054688 464.003906 C 558.054688 451.578125 568.125 441.503906 580.554688 441.503906 Z M 580.554688 441.503906 " clip-rule="nonzero"/></clipPath><linearGradient x1="-0.000119615" gradientTransform="matrix(0.395036, 0, 0, 0.395036, 558.053039, 441.502575)" y1="128" x2="255.999848" gradientUnits="userSpaceOnUse" y2="128" id="b175400e52"><stop stop-opacity="1" stop-color="rgb(0%, 28.999329%, 67.799377%)" offset="0"/><stop stop-opacity="1" stop-color="rgb(0.309753%, 29.051208%, 67.886353%)" offset="0.00390625"/><stop stop-opacity="1" stop-color="rgb(0.621033%, 29.104614%, 67.974854%)" offset="0.0078125"/><stop stop-opacity="1" stop-color="rgb(0.932312%, 29.156494%, 68.061829%)" offset="0.0117188"/><stop stop-opacity="1" stop-color="rgb(1.243591%, 29.208374%, 68.148804%)" offset="0.015625"/><stop stop-opacity="1" stop-color="rgb(1.553345%, 29.260254%, 68.235779%)" offset="0.0195312"/><stop stop-opacity="1" stop-color="rgb(1.864624%, 29.31366%, 68.32428%)" offset="0.0234375"/><stop stop-opacity="1" stop-color="rgb(2.175903%, 29.36554%, 68.411255%)" offset="0.0273438"/><stop stop-opacity="1" stop-color="rgb(2.487183%, 29.417419%, 68.499756%)" offset="0.03125"/><stop stop-opacity="1" stop-color="rgb(2.796936%, 29.469299%, 68.586731%)" offset="0.0351562"/><stop stop-opacity="1" stop-color="rgb(3.108215%, 29.522705%, 68.673706%)" offset="0.0390625"/><stop stop-opacity="1" stop-color="rgb(3.419495%, 29.574585%, 68.760681%)" offset="0.0429688"/><stop stop-opacity="1" stop-color="rgb(3.730774%, 29.627991%, 68.849182%)" offset="0.046875"/><stop stop-opacity="1" stop-color="rgb(4.040527%, 29.679871%, 68.936157%)" offset="0.0507812"/><stop stop-opacity="1" stop-color="rgb(4.351807%, 29.73175%, 69.024658%)" offset="0.0546875"/><stop stop-opacity="1" stop-color="rgb(4.663086%, 29.78363%, 69.111633%)" offset="0.0585938"/><stop stop-opacity="1" stop-color="rgb(4.974365%, 29.837036%, 69.198608%)" offset="0.0625"/><stop stop-opacity="1" stop-color="rgb(5.284119%, 29.888916%, 69.285583%)" offset="0.0664062"/><stop stop-opacity="1" stop-color="rgb(5.595398%, 29.940796%, 69.374084%)" offset="0.0703125"/><stop stop-opacity="1" stop-color="rgb(5.906677%, 29.992676%, 69.46106%)" offset="0.0742188"/><stop stop-opacity="1" stop-color="rgb(6.217957%, 30.046082%, 69.549561%)" offset="0.078125"/><stop stop-opacity="1" stop-color="rgb(6.529236%, 30.097961%, 69.636536%)" offset="0.0820312"/><stop stop-opacity="1" stop-color="rgb(6.840515%, 30.151367%, 69.723511%)" offset="0.0859375"/><stop stop-opacity="1" stop-color="rgb(7.150269%, 30.203247%, 69.810486%)" offset="0.0898438"/><stop stop-opacity="1" stop-color="rgb(7.461548%, 30.255127%, 69.898987%)" offset="0.09375"/><stop stop-opacity="1" stop-color="rgb(7.772827%, 30.307007%, 69.985962%)" offset="0.0976562"/><stop stop-opacity="1" stop-color="rgb(8.084106%, 30.360413%, 70.074463%)" offset="0.101562"/><stop stop-opacity="1" stop-color="rgb(8.39386%, 30.412292%, 70.161438%)" offset="0.105469"/><stop stop-opacity="1" stop-color="rgb(8.705139%, 30.464172%, 70.249939%)" offset="0.109375"/><stop stop-opacity="1" stop-color="rgb(9.016418%, 30.516052%, 70.336914%)" offset="0.113281"/><stop stop-opacity="1" stop-color="rgb(9.327698%, 30.569458%, 70.423889%)" offset="0.117188"/><stop stop-opacity="1" stop-color="rgb(9.637451%, 30.621338%, 70.510864%)" offset="0.121094"/><stop stop-opacity="1" stop-color="rgb(9.94873%, 30.674744%, 70.599365%)" offset="0.125"/><stop stop-opacity="1" stop-color="rgb(10.26001%, 30.726624%, 70.68634%)" offset="0.128906"/><stop stop-opacity="1" stop-color="rgb(10.571289%, 30.778503%, 70.774841%)" offset="0.132812"/><stop stop-opacity="1" stop-color="rgb(10.881042%, 30.830383%, 70.861816%)" offset="0.136719"/><stop stop-opacity="1" stop-color="rgb(11.192322%, 30.883789%, 70.948792%)" offset="0.140625"/><stop stop-opacity="1" stop-color="rgb(11.503601%, 30.935669%, 71.035767%)" offset="0.144531"/><stop stop-opacity="1" stop-color="rgb(11.81488%, 30.987549%, 71.124268%)" offset="0.148438"/><stop stop-opacity="1" stop-color="rgb(12.12616%, 31.039429%, 71.211243%)" offset="0.152344"/><stop stop-opacity="1" stop-color="rgb(12.437439%, 31.092834%, 71.299744%)" offset="0.15625"/><stop stop-opacity="1" stop-color="rgb(12.747192%, 31.144714%, 71.386719%)" offset="0.160156"/><stop stop-opacity="1" stop-color="rgb(13.058472%, 31.19812%, 71.473694%)" offset="0.164062"/><stop stop-opacity="1" stop-color="rgb(13.369751%, 31.25%, 71.560669%)" offset="0.167969"/><stop stop-opacity="1" stop-color="rgb(13.68103%, 31.30188%, 71.64917%)" offset="0.171875"/><stop stop-opacity="1" stop-color="rgb(13.990784%, 31.35376%, 71.736145%)" offset="0.175781"/><stop stop-opacity="1" stop-color="rgb(14.302063%, 31.407166%, 71.824646%)" offset="0.179688"/><stop stop-opacity="1" stop-color="rgb(14.613342%, 31.459045%, 71.911621%)" offset="0.183594"/><stop stop-opacity="1" stop-color="rgb(14.924622%, 31.512451%, 71.998596%)" offset="0.1875"/><stop stop-opacity="1" stop-color="rgb(15.234375%, 31.564331%, 72.085571%)" offset="0.191406"/><stop stop-opacity="1" stop-color="rgb(15.545654%, 31.616211%, 72.174072%)" offset="0.195312"/><stop stop-opacity="1" stop-color="rgb(15.856934%, 31.668091%, 72.261047%)" offset="0.199219"/><stop stop-opacity="1" stop-color="rgb(16.168213%, 31.721497%, 72.349548%)" offset="0.203125"/><stop stop-opacity="1" stop-color="rgb(16.477966%, 31.773376%, 72.436523%)" offset="0.207031"/><stop stop-opacity="1" stop-color="rgb(16.789246%, 31.825256%, 72.523499%)" offset="0.210938"/><stop stop-opacity="1" stop-color="rgb(17.100525%, 31.877136%, 72.610474%)" offset="0.214844"/><stop stop-opacity="1" stop-color="rgb(17.411804%, 31.930542%, 72.698975%)" offset="0.21875"/><stop stop-opacity="1" stop-color="rgb(17.721558%, 31.982422%, 72.78595%)" offset="0.222656"/><stop stop-opacity="1" stop-color="rgb(18.032837%, 32.035828%, 72.874451%)" offset="0.226562"/><stop stop-opacity="1" stop-color="rgb(18.344116%, 32.087708%, 72.961426%)" offset="0.230469"/><stop stop-opacity="1" stop-color="rgb(18.655396%, 32.139587%, 73.049927%)" offset="0.234375"/><stop stop-opacity="1" stop-color="rgb(18.966675%, 32.191467%, 73.136902%)" offset="0.238281"/><stop stop-opacity="1" stop-color="rgb(19.277954%, 32.244873%, 73.223877%)" offset="0.242188"/><stop stop-opacity="1" stop-color="rgb(19.587708%, 32.296753%, 73.310852%)" offset="0.246094"/><stop stop-opacity="1" stop-color="rgb(19.898987%, 32.348633%, 73.399353%)" offset="0.25"/><stop stop-opacity="1" stop-color="rgb(20.210266%, 32.400513%, 73.486328%)" offset="0.253906"/><stop stop-opacity="1" stop-color="rgb(20.521545%, 32.453918%, 73.574829%)" offset="0.257812"/><stop stop-opacity="1" stop-color="rgb(20.831299%, 32.505798%, 73.661804%)" offset="0.261719"/><stop stop-opacity="1" stop-color="rgb(21.142578%, 32.559204%, 73.748779%)" offset="0.265625"/><stop stop-opacity="1" stop-color="rgb(21.453857%, 32.611084%, 73.835754%)" offset="0.269531"/><stop stop-opacity="1" stop-color="rgb(21.765137%, 32.662964%, 73.924255%)" offset="0.273438"/><stop stop-opacity="1" stop-color="rgb(22.07489%, 32.714844%, 74.01123%)" offset="0.277344"/><stop stop-opacity="1" stop-color="rgb(22.386169%, 32.76825%, 74.099731%)" offset="0.28125"/><stop stop-opacity="1" stop-color="rgb(22.697449%, 32.820129%, 74.186707%)" offset="0.285156"/><stop stop-opacity="1" stop-color="rgb(23.008728%, 32.872009%, 74.273682%)" offset="0.289062"/><stop stop-opacity="1" stop-color="rgb(23.318481%, 32.923889%, 74.360657%)" offset="0.292969"/><stop stop-opacity="1" stop-color="rgb(23.629761%, 32.977295%, 74.449158%)" offset="0.296875"/><stop stop-opacity="1" stop-color="rgb(23.94104%, 33.029175%, 74.536133%)" offset="0.300781"/><stop stop-opacity="1" stop-color="rgb(24.252319%, 33.082581%, 74.624634%)" offset="0.304688"/><stop stop-opacity="1" stop-color="rgb(24.563599%, 33.13446%, 74.711609%)" offset="0.308594"/><stop stop-opacity="1" stop-color="rgb(24.874878%, 33.18634%, 74.798584%)" offset="0.3125"/><stop stop-opacity="1" stop-color="rgb(25.184631%, 33.23822%, 74.885559%)" offset="0.316406"/><stop stop-opacity="1" stop-color="rgb(25.495911%, 33.291626%, 74.97406%)" offset="0.320312"/><stop stop-opacity="1" stop-color="rgb(25.80719%, 33.343506%, 75.061035%)" offset="0.324219"/><stop stop-opacity="1" stop-color="rgb(26.118469%, 33.395386%, 75.149536%)" offset="0.328125"/><stop stop-opacity="1" stop-color="rgb(26.428223%, 33.447266%, 75.236511%)" offset="0.332031"/><stop stop-opacity="1" stop-color="rgb(26.739502%, 33.500671%, 75.323486%)" offset="0.335938"/><stop stop-opacity="1" stop-color="rgb(27.050781%, 33.552551%, 75.410461%)" offset="0.339844"/><stop stop-opacity="1" stop-color="rgb(27.362061%, 33.605957%, 75.498962%)" offset="0.34375"/><stop stop-opacity="1" stop-color="rgb(27.671814%, 33.657837%, 75.585938%)" offset="0.347656"/><stop stop-opacity="1" stop-color="rgb(27.983093%, 33.709717%, 75.674438%)" offset="0.351562"/><stop stop-opacity="1" stop-color="rgb(28.294373%, 33.761597%, 75.761414%)" offset="0.355469"/><stop stop-opacity="1" stop-color="rgb(28.605652%, 33.815002%, 75.849915%)" offset="0.359375"/><stop stop-opacity="1" stop-color="rgb(28.915405%, 33.866882%, 75.93689%)" offset="0.363281"/><stop stop-opacity="1" stop-color="rgb(29.226685%, 33.920288%, 76.023865%)" offset="0.367188"/><stop stop-opacity="1" stop-color="rgb(29.537964%, 33.972168%, 76.11084%)" offset="0.371094"/><stop stop-opacity="1" stop-color="rgb(29.849243%, 34.024048%, 76.199341%)" offset="0.375"/><stop stop-opacity="1" stop-color="rgb(30.160522%, 34.075928%, 76.286316%)" offset="0.378906"/><stop stop-opacity="1" stop-color="rgb(30.471802%, 34.129333%, 76.374817%)" offset="0.382812"/><stop stop-opacity="1" stop-color="rgb(30.781555%, 34.181213%, 76.461792%)" offset="0.386719"/><stop stop-opacity="1" stop-color="rgb(31.092834%, 34.233093%, 76.548767%)" offset="0.390625"/><stop stop-opacity="1" stop-color="rgb(31.404114%, 34.284973%, 76.635742%)" offset="0.394531"/><stop stop-opacity="1" stop-color="rgb(31.715393%, 34.338379%, 76.724243%)" offset="0.398438"/><stop stop-opacity="1" stop-color="rgb(32.025146%, 34.390259%, 76.811218%)" offset="0.402344"/><stop stop-opacity="1" stop-color="rgb(32.336426%, 34.443665%, 76.899719%)" offset="0.40625"/><stop stop-opacity="1" stop-color="rgb(32.647705%, 34.495544%, 76.986694%)" offset="0.410156"/><stop stop-opacity="1" stop-color="rgb(32.958984%, 34.547424%, 77.073669%)" offset="0.414062"/><stop stop-opacity="1" stop-color="rgb(33.268738%, 34.599304%, 77.160645%)" offset="0.417969"/><stop stop-opacity="1" stop-color="rgb(33.580017%, 34.65271%, 77.249146%)" offset="0.421875"/><stop stop-opacity="1" stop-color="rgb(33.891296%, 34.70459%, 77.336121%)" offset="0.425781"/><stop stop-opacity="1" stop-color="rgb(34.202576%, 34.75647%, 77.424622%)" offset="0.429688"/><stop stop-opacity="1" stop-color="rgb(34.512329%, 34.80835%, 77.511597%)" offset="0.433594"/><stop stop-opacity="1" stop-color="rgb(34.823608%, 34.861755%, 77.598572%)" offset="0.4375"/><stop stop-opacity="1" stop-color="rgb(35.134888%, 34.913635%, 77.685547%)" offset="0.441406"/><stop stop-opacity="1" stop-color="rgb(35.446167%, 34.967041%, 77.774048%)" offset="0.445312"/><stop stop-opacity="1" stop-color="rgb(35.75592%, 35.018921%, 77.861023%)" offset="0.449219"/><stop stop-opacity="1" stop-color="rgb(36.0672%, 35.070801%, 77.949524%)" offset="0.453125"/><stop stop-opacity="1" stop-color="rgb(36.378479%, 35.122681%, 78.036499%)" offset="0.457031"/><stop stop-opacity="1" stop-color="rgb(36.689758%, 35.176086%, 78.123474%)" offset="0.460938"/><stop stop-opacity="1" stop-color="rgb(37.001038%, 35.227966%, 78.210449%)" offset="0.464844"/><stop stop-opacity="1" stop-color="rgb(37.312317%, 35.279846%, 78.29895%)" offset="0.46875"/><stop stop-opacity="1" stop-color="rgb(37.62207%, 35.331726%, 78.385925%)" offset="0.472656"/><stop stop-opacity="1" stop-color="rgb(37.93335%, 35.385132%, 78.474426%)" offset="0.476562"/><stop stop-opacity="1" stop-color="rgb(38.244629%, 35.437012%, 78.561401%)" offset="0.480469"/><stop stop-opacity="1" stop-color="rgb(38.555908%, 35.490417%, 78.649902%)" offset="0.484375"/><stop stop-opacity="1" stop-color="rgb(38.865662%, 35.542297%, 78.736877%)" offset="0.488281"/><stop stop-opacity="1" stop-color="rgb(39.176941%, 35.594177%, 78.823853%)" offset="0.492188"/><stop stop-opacity="1" stop-color="rgb(39.48822%, 35.646057%, 78.910828%)" offset="0.496094"/><stop stop-opacity="1" stop-color="rgb(39.7995%, 35.699463%, 78.999329%)" offset="0.5"/><stop stop-opacity="1" stop-color="rgb(40.109253%, 35.751343%, 79.086304%)" offset="0.503906"/><stop stop-opacity="1" stop-color="rgb(40.420532%, 35.803223%, 79.174805%)" offset="0.507812"/><stop stop-opacity="1" stop-color="rgb(40.731812%, 35.855103%, 79.26178%)" offset="0.511719"/><stop stop-opacity="1" stop-color="rgb(41.043091%, 35.908508%, 79.348755%)" offset="0.515625"/><stop stop-opacity="1" stop-color="rgb(41.352844%, 35.960388%, 79.43573%)" offset="0.519531"/><stop stop-opacity="1" stop-color="rgb(41.664124%, 36.013794%, 79.524231%)" offset="0.523437"/><stop stop-opacity="1" stop-color="rgb(41.975403%, 36.065674%, 79.611206%)" offset="0.527344"/><stop stop-opacity="1" stop-color="rgb(42.286682%, 36.117554%, 79.699707%)" offset="0.53125"/><stop stop-opacity="1" stop-color="rgb(42.597961%, 36.169434%, 79.786682%)" offset="0.535156"/><stop stop-opacity="1" stop-color="rgb(42.909241%, 36.222839%, 79.873657%)" offset="0.539063"/><stop stop-opacity="1" stop-color="rgb(43.218994%, 36.274719%, 79.960632%)" offset="0.542969"/><stop stop-opacity="1" stop-color="rgb(43.530273%, 36.326599%, 80.049133%)" offset="0.546875"/><stop stop-opacity="1" stop-color="rgb(43.841553%, 36.378479%, 80.136108%)" offset="0.550781"/><stop stop-opacity="1" stop-color="rgb(44.152832%, 36.431885%, 80.224609%)" offset="0.554688"/><stop stop-opacity="1" stop-color="rgb(44.462585%, 36.483765%, 80.311584%)" offset="0.558594"/><stop stop-opacity="1" stop-color="rgb(44.773865%, 36.53717%, 80.39856%)" offset="0.5625"/><stop stop-opacity="1" stop-color="rgb(45.085144%, 36.58905%, 80.485535%)" offset="0.566406"/><stop stop-opacity="1" stop-color="rgb(45.396423%, 36.64093%, 80.574036%)" offset="0.570312"/><stop stop-opacity="1" stop-color="rgb(45.706177%, 36.69281%, 80.661011%)" offset="0.574219"/><stop stop-opacity="1" stop-color="rgb(46.017456%, 36.746216%, 80.749512%)" offset="0.578125"/><stop stop-opacity="1" stop-color="rgb(46.328735%, 36.798096%, 80.836487%)" offset="0.582031"/><stop stop-opacity="1" stop-color="rgb(46.640015%, 36.851501%, 80.924988%)" offset="0.585937"/><stop stop-opacity="1" stop-color="rgb(46.949768%, 36.903381%, 81.011963%)" offset="0.589844"/><stop stop-opacity="1" stop-color="rgb(47.261047%, 36.955261%, 81.098938%)" offset="0.59375"/><stop stop-opacity="1" stop-color="rgb(47.572327%, 37.007141%, 81.185913%)" offset="0.597656"/><stop stop-opacity="1" stop-color="rgb(47.883606%, 37.060547%, 81.274414%)" offset="0.601563"/><stop stop-opacity="1" stop-color="rgb(48.194885%, 37.112427%, 81.361389%)" offset="0.605469"/><stop stop-opacity="1" stop-color="rgb(48.506165%, 37.164307%, 81.44989%)" offset="0.609375"/><stop stop-opacity="1" stop-color="rgb(48.815918%, 37.216187%, 81.536865%)" offset="0.613281"/><stop stop-opacity="1" stop-color="rgb(49.127197%, 37.269592%, 81.62384%)" offset="0.617188"/><stop stop-opacity="1" stop-color="rgb(49.438477%, 37.321472%, 81.710815%)" offset="0.621094"/><stop stop-opacity="1" stop-color="rgb(49.749756%, 37.374878%, 81.799316%)" offset="0.625"/><stop stop-opacity="1" stop-color="rgb(50.059509%, 37.426758%, 81.886292%)" offset="0.628906"/><stop stop-opacity="1" stop-color="rgb(50.370789%, 37.478638%, 81.974792%)" offset="0.632812"/><stop stop-opacity="1" stop-color="rgb(50.682068%, 37.530518%, 82.061768%)" offset="0.636719"/><stop stop-opacity="1" stop-color="rgb(50.993347%, 37.583923%, 82.148743%)" offset="0.640625"/><stop stop-opacity="1" stop-color="rgb(51.303101%, 37.635803%, 82.235718%)" offset="0.644531"/><stop stop-opacity="1" stop-color="rgb(51.61438%, 37.687683%, 82.324219%)" offset="0.648437"/><stop stop-opacity="1" stop-color="rgb(51.925659%, 37.739563%, 82.411194%)" offset="0.652344"/><stop stop-opacity="1" stop-color="rgb(52.236938%, 37.792969%, 82.499695%)" offset="0.65625"/><stop stop-opacity="1" stop-color="rgb(52.546692%, 37.844849%, 82.58667%)" offset="0.660156"/><stop stop-opacity="1" stop-color="rgb(52.857971%, 37.898254%, 82.673645%)" offset="0.664063"/><stop stop-opacity="1" stop-color="rgb(53.16925%, 37.950134%, 82.76062%)" offset="0.667969"/><stop stop-opacity="1" stop-color="rgb(53.48053%, 38.002014%, 82.849121%)" offset="0.671875"/><stop stop-opacity="1" stop-color="rgb(53.790283%, 38.053894%, 82.936096%)" offset="0.675781"/><stop stop-opacity="1" stop-color="rgb(54.101562%, 38.1073%, 83.024597%)" offset="0.679688"/><stop stop-opacity="1" stop-color="rgb(54.412842%, 38.15918%, 83.111572%)" offset="0.683594"/><stop stop-opacity="1" stop-color="rgb(54.724121%, 38.21106%, 83.198547%)" offset="0.6875"/><stop stop-opacity="1" stop-color="rgb(55.0354%, 38.262939%, 83.285522%)" offset="0.691406"/><stop stop-opacity="1" stop-color="rgb(55.34668%, 38.316345%, 83.374023%)" offset="0.695312"/><stop stop-opacity="1" stop-color="rgb(55.656433%, 38.368225%, 83.460999%)" offset="0.699219"/><stop stop-opacity="1" stop-color="rgb(55.967712%, 38.421631%, 83.5495%)" offset="0.703125"/><stop stop-opacity="1" stop-color="rgb(56.278992%, 38.473511%, 83.636475%)" offset="0.707031"/><stop stop-opacity="1" stop-color="rgb(56.590271%, 38.525391%, 83.724976%)" offset="0.710937"/><stop stop-opacity="1" stop-color="rgb(56.900024%, 38.577271%, 83.811951%)" offset="0.714844"/><stop stop-opacity="1" stop-color="rgb(57.211304%, 38.630676%, 83.898926%)" offset="0.71875"/><stop stop-opacity="1" stop-color="rgb(57.522583%, 38.682556%, 83.985901%)" offset="0.722656"/><stop stop-opacity="1" stop-color="rgb(57.833862%, 38.734436%, 84.074402%)" offset="0.726563"/><stop stop-opacity="1" stop-color="rgb(58.143616%, 38.786316%, 84.161377%)" offset="0.730469"/><stop stop-opacity="1" stop-color="rgb(58.454895%, 38.839722%, 84.249878%)" offset="0.734375"/><stop stop-opacity="1" stop-color="rgb(58.766174%, 38.891602%, 84.336853%)" offset="0.738281"/><stop stop-opacity="1" stop-color="rgb(59.077454%, 38.945007%, 84.423828%)" offset="0.742188"/><stop stop-opacity="1" stop-color="rgb(59.387207%, 38.996887%, 84.510803%)" offset="0.746094"/><stop stop-opacity="1" stop-color="rgb(59.698486%, 39.048767%, 84.599304%)" offset="0.75"/><stop stop-opacity="1" stop-color="rgb(60.009766%, 39.100647%, 84.686279%)" offset="0.753906"/><stop stop-opacity="1" stop-color="rgb(60.321045%, 39.154053%, 84.77478%)" offset="0.757812"/><stop stop-opacity="1" stop-color="rgb(60.632324%, 39.205933%, 84.861755%)" offset="0.761719"/><stop stop-opacity="1" stop-color="rgb(60.943604%, 39.259338%, 84.94873%)" offset="0.765625"/><stop stop-opacity="1" stop-color="rgb(61.253357%, 39.311218%, 85.035706%)" offset="0.769531"/><stop stop-opacity="1" stop-color="rgb(61.564636%, 39.363098%, 85.124207%)" offset="0.773437"/><stop stop-opacity="1" stop-color="rgb(61.875916%, 39.414978%, 85.211182%)" offset="0.777344"/><stop stop-opacity="1" stop-color="rgb(62.187195%, 39.468384%, 85.299683%)" offset="0.78125"/><stop stop-opacity="1" stop-color="rgb(62.496948%, 39.520264%, 85.386658%)" offset="0.785156"/><stop stop-opacity="1" stop-color="rgb(62.808228%, 39.572144%, 85.473633%)" offset="0.789063"/><stop stop-opacity="1" stop-color="rgb(63.119507%, 39.624023%, 85.560608%)" offset="0.792969"/><stop stop-opacity="1" stop-color="rgb(63.430786%, 39.677429%, 85.649109%)" offset="0.796875"/><stop stop-opacity="1" stop-color="rgb(63.74054%, 39.729309%, 85.736084%)" offset="0.800781"/><stop stop-opacity="1" stop-color="rgb(64.051819%, 39.782715%, 85.824585%)" offset="0.804688"/><stop stop-opacity="1" stop-color="rgb(64.363098%, 39.834595%, 85.91156%)" offset="0.808594"/><stop stop-opacity="1" stop-color="rgb(64.674377%, 39.886475%, 85.998535%)" offset="0.8125"/><stop stop-opacity="1" stop-color="rgb(64.984131%, 39.938354%, 86.08551%)" offset="0.816406"/><stop stop-opacity="1" stop-color="rgb(65.29541%, 39.99176%, 86.174011%)" offset="0.820312"/><stop stop-opacity="1" stop-color="rgb(65.606689%, 40.04364%, 86.260986%)" offset="0.824219"/><stop stop-opacity="1" stop-color="rgb(65.917969%, 40.09552%, 86.349487%)" offset="0.828125"/><stop stop-opacity="1" stop-color="rgb(66.229248%, 40.1474%, 86.436462%)" offset="0.832031"/><stop stop-opacity="1" stop-color="rgb(66.540527%, 40.200806%, 86.524963%)" offset="0.835937"/><stop stop-opacity="1" stop-color="rgb(66.850281%, 40.252686%, 86.611938%)" offset="0.839844"/><stop stop-opacity="1" stop-color="rgb(67.16156%, 40.306091%, 86.698914%)" offset="0.84375"/><stop stop-opacity="1" stop-color="rgb(67.472839%, 40.357971%, 86.785889%)" offset="0.847656"/><stop stop-opacity="1" stop-color="rgb(67.784119%, 40.409851%, 86.87439%)" offset="0.851563"/><stop stop-opacity="1" stop-color="rgb(68.093872%, 40.461731%, 86.961365%)" offset="0.855469"/><stop stop-opacity="1" stop-color="rgb(68.405151%, 40.515137%, 87.049866%)" offset="0.859375"/><stop stop-opacity="1" stop-color="rgb(68.716431%, 40.567017%, 87.136841%)" offset="0.863281"/><stop stop-opacity="1" stop-color="rgb(69.02771%, 40.618896%, 87.223816%)" offset="0.867188"/><stop stop-opacity="1" stop-color="rgb(69.337463%, 40.670776%, 87.310791%)" offset="0.871094"/><stop stop-opacity="1" stop-color="rgb(69.648743%, 40.724182%, 87.399292%)" offset="0.875"/><stop stop-opacity="1" stop-color="rgb(69.960022%, 40.776062%, 87.486267%)" offset="0.878906"/><stop stop-opacity="1" stop-color="rgb(70.271301%, 40.829468%, 87.574768%)" offset="0.882812"/><stop stop-opacity="1" stop-color="rgb(70.581055%, 40.881348%, 87.661743%)" offset="0.886719"/><stop stop-opacity="1" stop-color="rgb(70.892334%, 40.933228%, 87.748718%)" offset="0.890625"/><stop stop-opacity="1" stop-color="rgb(71.203613%, 40.985107%, 87.835693%)" offset="0.894531"/><stop stop-opacity="1" stop-color="rgb(71.514893%, 41.038513%, 87.924194%)" offset="0.898437"/><stop stop-opacity="1" stop-color="rgb(71.826172%, 41.090393%, 88.011169%)" offset="0.902344"/><stop stop-opacity="1" stop-color="rgb(72.137451%, 41.142273%, 88.09967%)" offset="0.90625"/><stop stop-opacity="1" stop-color="rgb(72.447205%, 41.194153%, 88.186646%)" offset="0.910156"/><stop stop-opacity="1" stop-color="rgb(72.758484%, 41.247559%, 88.273621%)" offset="0.914063"/><stop stop-opacity="1" stop-color="rgb(73.069763%, 41.299438%, 88.360596%)" offset="0.917969"/><stop stop-opacity="1" stop-color="rgb(73.381042%, 41.352844%, 88.449097%)" offset="0.921875"/><stop stop-opacity="1" stop-color="rgb(73.690796%, 41.404724%, 88.536072%)" offset="0.925781"/><stop stop-opacity="1" stop-color="rgb(74.002075%, 41.456604%, 88.624573%)" offset="0.929688"/><stop stop-opacity="1" stop-color="rgb(74.313354%, 41.508484%, 88.711548%)" offset="0.933594"/><stop stop-opacity="1" stop-color="rgb(74.624634%, 41.56189%, 88.798523%)" offset="0.9375"/><stop stop-opacity="1" stop-color="rgb(74.934387%, 41.61377%, 88.885498%)" offset="0.941406"/><stop stop-opacity="1" stop-color="rgb(75.245667%, 41.667175%, 88.973999%)" offset="0.945312"/><stop stop-opacity="1" stop-color="rgb(75.556946%, 41.719055%, 89.060974%)" offset="0.949219"/><stop stop-opacity="1" stop-color="rgb(75.868225%, 41.770935%, 89.149475%)" offset="0.953125"/><stop stop-opacity="1" stop-color="rgb(76.177979%, 41.822815%, 89.23645%)" offset="0.957031"/><stop stop-opacity="1" stop-color="rgb(76.489258%, 41.876221%, 89.324951%)" offset="0.960937"/><stop stop-opacity="1" stop-color="rgb(76.800537%, 41.928101%, 89.411926%)" offset="0.964844"/><stop stop-opacity="1" stop-color="rgb(77.111816%, 41.97998%, 89.498901%)" offset="0.96875"/><stop stop-opacity="1" stop-color="rgb(77.42157%, 42.03186%, 89.585876%)" offset="0.972656"/><stop stop-opacity="1" stop-color="rgb(77.732849%, 42.085266%, 89.674377%)" offset="0.976563"/><stop stop-opacity="1" stop-color="rgb(78.044128%, 42.137146%, 89.761353%)" offset="0.980469"/><stop stop-opacity="1" stop-color="rgb(78.355408%, 42.190552%, 89.849854%)" offset="0.984375"/><stop stop-opacity="1" stop-color="rgb(78.666687%, 42.242432%, 89.936829%)" offset="0.988281"/><stop stop-opacity="1" stop-color="rgb(78.977966%, 42.294312%, 90.023804%)" offset="0.992188"/><stop stop-opacity="1" stop-color="rgb(79.28772%, 42.346191%, 90.110779%)" offset="0.996094"/><stop stop-opacity="1" stop-color="rgb(79.598999%, 42.399597%, 90.19928%)" offset="1"/></linearGradient><clipPath id="427968093d"><path d="M 591.546875 462.839844 L 635.023438 462.839844 L 635.023438 521.121094 L 591.546875 521.121094 Z M 591.546875 462.839844 " clip-rule="nonzero"/></clipPath></defs><g fill="#ffffff" fill-opacity="1"><g transform="translate(419.912871, 538.269728)"><g><path d="M 123.421875 -87.765625 L 52.796875 -27.078125 L 123.421875 -27.078125 L 123.421875 0 L 8.578125 0 L 8.578125 -27.078125 L 79.1875 -87.765625 L 11.140625 -87.765625 L 11.140625 -114.84375 L 123.421875 -114.84375 Z M 123.421875 -87.765625 "/></g></g></g><g clip-path="url(#d29eed93f4)"><path fill="#ffffff" d="M 812.816406 315.746094 C 792.257812 277.332031 783.332031 272.398438 772.523438 272.398438 C 761.714844 272.398438 752.789062 277.332031 732.230469 315.746094 L 731.996094 316.097656 C 725.066406 330.785156 703.800781 330.078125 698.164062 314.808594 C 691.585938 296.953125 684.890625 273.457031 678.664062 242.679688 C 658.105469 154.457031 649.179688 143.179688 638.371094 143.179688 C 627.5625 143.179688 618.636719 154.574219 598.078125 242.679688 C 589.382812 285.675781 579.753906 314.335938 570.824219 333.484375 C 564.714844 346.640625 546.273438 347.464844 538.988281 334.894531 L 538.871094 334.542969 C 521.957031 309.050781 514.671875 305.761719 505.863281 305.761719 C 497.050781 305.761719 489.769531 309.050781 472.851562 334.542969 C 472.851562 334.660156 472.734375 334.660156 472.734375 334.777344 C 467.332031 344.175781 453.707031 343.824219 448.066406 334.542969 C 443.132812 326.554688 438.316406 316.804688 433.617188 305.058594 C 413.058594 259.476562 404.132812 253.605469 393.324219 253.605469 C 382.515625 253.605469 373.589844 259.476562 353.03125 305.058594 L 352.796875 305.761719 C 343.164062 330.078125 308.511719 329.960938 299.464844 305.527344 C 296.410156 297.070312 293.355469 287.671875 290.417969 276.980469 C 269.863281 212.136719 260.933594 203.796875 250.125 203.796875 C 239.320312 203.796875 230.390625 212.136719 209.835938 276.980469 C 204.3125 297.070312 198.320312 312.929688 192.449219 325.378906 C 186.339844 338.417969 167.78125 339.007812 160.613281 326.4375 C 140.054688 295.425781 131.128906 291.429688 120.320312 291.429688 C 109.511719 291.429688 100.585938 295.425781 80.027344 326.4375 C 54.773438 370.136719 22.230469 371.898438 22.230469 371.898438 L 870.496094 371.898438 C 870.730469 372.015625 838.070312 369.667969 812.816406 315.746094 Z M 812.816406 315.746094 " fill-opacity="1" fill-rule="nonzero"/></g><g clip-path="url(#ccb86507fc)"><g clip-path="url(#4c9765d0be)"><path fill="url(#b175400e52)" d="M 558.054688 441.503906 L 558.054688 542.632812 L 659.183594 542.632812 L 659.183594 441.503906 Z M 558.054688 441.503906 " fill-rule="nonzero"/></g></g><g clip-path="url(#427968093d)"><path fill="#000000" d="M 595.433594 521.082031 C 596.699219 521.082031 598.144531 520.535156 599.636719 519.492188 L 631.816406 497.367188 C 633.894531 495.957031 635.023438 494.003906 635.023438 491.957031 C 635.023438 489.914062 633.894531 487.960938 631.816406 486.550781 L 599.679688 464.425781 C 598.1875 463.378906 596.699219 462.882812 595.433594 462.882812 C 593.035156 462.882812 591.546875 464.835938 591.546875 468.058594 L 591.546875 515.902344 C 591.546875 519.128906 593.035156 521.082031 595.433594 521.082031 Z M 595.433594 521.082031 " fill-opacity="1" fill-rule="nonzero"/></g><g fill="#ffffff" fill-opacity="1"><g transform="translate(173.044045, 538.319814)"><g><path d="M 97.984375 -69.6875 L 28.3125 -69.6875 L 28.3125 -56.34375 L 97.984375 -56.34375 L 97.984375 -34.84375 L 28.3125 -34.84375 L 28.3125 -21.5 L 97.984375 -21.5 L 97.984375 0 L 6.796875 0 L 6.796875 -91.1875 L 97.984375 -91.1875 Z M 97.984375 -69.6875 "/></g></g></g><g fill="#ffffff" fill-opacity="1"><g transform="translate(277.830957, 538.319814)"><g><path d="M 6.796875 0 L 6.796875 -91.1875 L 28.3125 -91.1875 L 28.3125 -21.5 L 59.0625 -21.640625 L 59.0625 -91.1875 L 80.5625 -91.1875 L 80.5625 -21.640625 L 111.328125 -21.5 L 111.328125 -91.1875 L 132.828125 -91.1875 L 132.828125 0 Z M 6.796875 0 "/></g></g></g><g fill="#ffffff" fill-opacity="1"><g transform="translate(417.473189, 538.319814)"><g/></g></g><g fill="#ffffff" fill-opacity="1"><g transform="translate(114.005943, 651.037159)"><g><path d="M 75.984375 0 C 74.609375 -2.507812 73.503906 -4.554688 72.671875 -6.140625 C 71.835938 -7.722656 71.101562 -9.066406 70.46875 -10.171875 C 69.84375 -11.273438 69.21875 -12.421875 68.59375 -13.609375 C 67.96875 -14.804688 67.144531 -16.300781 66.125 -18.09375 L 16.9375 -18.09375 C 15.445312 -15.164062 13.910156 -12.207031 12.328125 -9.21875 C 10.742188 -6.238281 9.113281 -3.164062 7.4375 0 L 4.484375 0 C 10.210938 -10.695312 15.957031 -21.539062 21.71875 -32.53125 C 27.488281 -43.519531 33.242188 -54.363281 38.984375 -65.0625 L 44 -65.0625 C 49.851562 -54.363281 55.691406 -43.519531 61.515625 -32.53125 C 67.335938 -21.539062 73.148438 -10.695312 78.953125 0 Z M 18.1875 -20.4375 L 64.875 -20.4375 C 63.675781 -22.757812 62.09375 -25.726562 60.125 -29.34375 C 58.15625 -32.957031 55.644531 -37.601562 52.59375 -43.28125 C 49.550781 -48.957031 45.789062 -55.945312 41.3125 -64.25 C 37.125 -56.25 33.164062 -48.722656 29.4375 -41.671875 C 25.707031 -34.617188 21.957031 -27.539062 18.1875 -20.4375 Z M 18.1875 -20.4375 "/></g></g></g><g fill="#ffffff" fill-opacity="1"><g transform="translate(269.129101, 651.037159)"><g><path d="M 85.046875 -33.78125 C 85.046875 -26.550781 83.519531 -20.367188 80.46875 -15.234375 C 77.425781 -10.097656 73.082031 -6.15625 67.4375 -3.40625 C 61.789062 -0.65625 55.113281 0.71875 47.40625 0.71875 C 39.757812 0.71875 33.113281 -0.65625 27.46875 -3.40625 C 21.820312 -6.15625 17.472656 -10.097656 14.421875 -15.234375 C 11.378906 -20.367188 9.859375 -26.550781 9.859375 -33.78125 L 9.859375 -65.0625 C 10.335938 -65.0625 10.800781 -65.0625 11.25 -65.0625 C 11.695312 -65.0625 12.128906 -65.0625 12.546875 -65.0625 L 12.546875 -33.78125 C 12.546875 -27.09375 13.945312 -21.359375 16.75 -16.578125 C 19.5625 -11.796875 23.566406 -8.132812 28.765625 -5.59375 C 33.960938 -3.0625 40.175781 -1.796875 47.40625 -1.796875 C 54.6875 -1.796875 60.925781 -3.0625 66.125 -5.59375 C 71.320312 -8.132812 75.320312 -11.796875 78.125 -16.578125 C 80.9375 -21.359375 82.34375 -27.09375 82.34375 -33.78125 L 82.34375 -65.0625 C 82.820312 -65.0625 83.253906 -65.0625 83.640625 -65.0625 C 84.035156 -65.0625 84.503906 -65.0625 85.046875 -65.0625 Z M 85.046875 -33.78125 "/></g></g></g><g fill="#ffffff" fill-opacity="1"><g transform="translate(435.722317, 651.037159)"><g><path d="M 9.859375 0.09375 L 9.859375 -65.0625 C 16.066406 -65.0625 22.203125 -65.0625 28.265625 -65.0625 C 34.328125 -65.0625 40.40625 -65.0625 46.5 -65.0625 C 55.050781 -65.0625 62.359375 -63.789062 68.421875 -61.25 C 74.484375 -58.707031 79.140625 -55.03125 82.390625 -50.21875 C 85.648438 -45.414062 87.28125 -39.640625 87.28125 -32.890625 C 87.28125 -25.953125 85.578125 -20.019531 82.171875 -15.09375 C 78.765625 -10.164062 73.878906 -6.398438 67.515625 -3.796875 C 61.160156 -1.203125 53.53125 0.09375 44.625 0.09375 Z M 12.640625 -62.453125 C 12.640625 -52.484375 12.648438 -42.492188 12.671875 -32.484375 C 12.703125 -22.472656 12.71875 -12.484375 12.71875 -2.515625 L 44.625 -2.515625 C 52.925781 -2.515625 60.046875 -3.707031 65.984375 -6.09375 C 71.929688 -8.476562 76.488281 -11.941406 79.65625 -16.484375 C 82.820312 -21.023438 84.40625 -26.492188 84.40625 -32.890625 C 84.40625 -39.097656 82.835938 -44.410156 79.703125 -48.828125 C 76.566406 -53.253906 72.070312 -56.628906 66.21875 -58.953125 C 60.363281 -61.285156 53.34375 -62.453125 45.15625 -62.453125 Z M 12.640625 -62.453125 "/></g></g></g><g fill="#ffffff" fill-opacity="1"><g transform="translate(600.971349, 651.037159)"><g><path d="M 11.65625 0 L 11.65625 -65.0625 C 12.125 -65.0625 12.613281 -65.0625 13.125 -65.0625 C 13.632812 -65.0625 14.039062 -65.0625 14.34375 -65.0625 L 14.34375 0 Z M 11.65625 0 "/></g></g></g><g fill="#ffffff" fill-opacity="1"><g transform="translate(698.654573, 651.037159)"><g><path d="M 48.203125 0.71875 C 39.484375 0.71875 31.988281 -0.59375 25.71875 -3.21875 C 19.445312 -5.851562 14.632812 -9.632812 11.28125 -14.5625 C 7.9375 -19.488281 6.265625 -25.414062 6.265625 -32.34375 C 6.265625 -39.519531 7.9375 -45.585938 11.28125 -50.546875 C 14.632812 -55.503906 19.429688 -59.28125 25.671875 -61.875 C 31.910156 -64.46875 39.421875 -65.765625 48.203125 -65.765625 C 56.984375 -65.765625 64.492188 -64.453125 70.734375 -61.828125 C 76.984375 -59.203125 81.765625 -55.410156 85.078125 -50.453125 C 88.398438 -45.492188 90.0625 -39.457031 90.0625 -32.34375 C 90.0625 -25.414062 88.398438 -19.488281 85.078125 -14.5625 C 81.765625 -9.632812 76.984375 -5.851562 70.734375 -3.21875 C 64.492188 -0.59375 56.984375 0.71875 48.203125 0.71875 Z M 48.203125 -1.796875 C 56.210938 -1.796875 63.128906 -2.972656 68.953125 -5.328125 C 74.773438 -7.691406 79.269531 -11.140625 82.4375 -15.671875 C 85.601562 -20.210938 87.1875 -25.769531 87.1875 -32.34375 C 87.1875 -38.800781 85.601562 -44.34375 82.4375 -48.96875 C 79.269531 -53.601562 74.773438 -57.160156 68.953125 -59.640625 C 63.128906 -62.117188 56.210938 -63.359375 48.203125 -63.359375 C 40.140625 -63.359375 33.179688 -62.117188 27.328125 -59.640625 C 21.472656 -57.160156 16.976562 -53.601562 13.84375 -48.96875 C 10.707031 -44.34375 9.140625 -38.800781 9.140625 -32.34375 C 9.140625 -25.769531 10.707031 -20.210938 13.84375 -15.671875 C 16.976562 -11.140625 21.472656 -7.691406 27.328125 -5.328125 C 33.179688 -2.972656 40.140625 -1.796875 48.203125 -1.796875 Z M 48.203125 -1.796875 "/></g></g></g><g fill="#ffffff" fill-opacity="1"><g transform="translate(668.402008, 538.319814)"><g><path d="M 76.484375 -91.1875 L 97.984375 -91.1875 L 97.984375 0.6875 L 97.03125 0 L 76.484375 0 L 76.484375 -14.828125 L 28.3125 -49 L 28.3125 0 L 6.796875 0 L 6.796875 -91.1875 L 28.3125 -91.1875 L 28.3125 -76.21875 L 76.484375 -42.046875 Z M 76.484375 -91.1875 "/></g></g></g><g fill="#ffffff" fill-opacity="1"><g transform="translate(773.18892, 538.319814)"><g><path d="M 97.984375 -69.6875 L 28.3125 -69.6875 L 28.3125 -56.34375 L 97.984375 -56.34375 L 97.984375 -34.84375 L 28.3125 -34.84375 L 28.3125 -21.5 L 97.984375 -21.5 L 97.984375 0 L 6.796875 0 L 6.796875 -91.1875 L 97.984375 -91.1875 Z M 97.984375 -69.6875 "/></g></g></g><g fill="#ffffff" fill-opacity="1"><g transform="translate(34.14494, 536.17922)"><g><path d="M 96.34375 -114.84375 L 123.421875 -114.84375 L 123.421875 0.859375 L 122.21875 0 L 96.34375 0 L 96.34375 -18.6875 L 35.65625 -61.703125 L 35.65625 0 L 8.578125 0 L 8.578125 -114.84375 L 35.65625 -114.84375 L 35.65625 -96 L 96.34375 -52.96875 Z M 96.34375 -114.84375 "/></g></g></g></svg>